<svg width="40" height="40" viewBox="0 0 100 100" xmlns="http://www.w3.org/2000/svg">
    <defs>
        <linearGradient id="mandalaGradient" x1="0%" y1="0%" x2="100%" y2="100%">
            <stop offset="0%" style="stop-color:#0369a1;stop-opacity:1" />
            <stop offset="50%" style="stop-color:#4ade80;stop-opacity:1" />
            <stop offset="100%" style="stop-color:#a855f7;stop-opacity:1" />
        </linearGradient>
    </defs>

    <!-- Círculo exterior -->
    <circle cx="50" cy="50" r="35" stroke="url(#mandalaGradient)" stroke-width="1" fill="none" opacity="0.6"/>

    <!-- Pétalas geométricas -->
    <polygon points="50,20 53,30 50,35 47,30" fill="#4ade80" opacity="0.8"/>
    <polygon points="70,50 65,47 60,50 65,53" fill="#a855f7" opacity="0.8"/>
    <polygon points="50,80 47,70 50,65 53,70" fill="#0369a1" opacity="0.8"/>
    <polygon points="30,50 35,53 40,50 35,47" fill="#4ade80" opacity="0.8"/>

    <!-- Camada média -->
    <circle cx="50" cy="50" r="20" stroke="url(#mandalaGradient)" stroke-width="1.5" fill="none" opacity="0.8"/>

    <!-- Elementos internos -->
    <polygon points="50,35 60,45 50,55 40,45" fill="url(#mandalaGradient)" opacity="0.6"/>

    <!-- Núcleo central -->
    <circle cx="50" cy="50" r="8" fill="url(#mandalaGradient)" opacity="0.9"/>
    <circle cx="50" cy="50" r="4" fill="#ffffff"/>
    <circle cx="50" cy="50" r="2" fill="#a855f7"/>
</svg>