<svg width="40" height="40" viewBox="0 0 100 100" xmlns="http://www.w3.org/2000/svg">
    <defs>
        <linearGradient id="fibonacciGradient" x1="0%" y1="0%" x2="100%" y2="100%">
            <stop offset="0%" style="stop-color:#0369a1;stop-opacity:1" />
            <stop offset="50%" style="stop-color:#4ade80;stop-opacity:1" />
            <stop offset="100%" style="stop-color:#a855f7;stop-opacity:1" />
        </linearGradient>
    </defs>

    <!-- Grid de Fibonacci simplificado -->
    <rect x="20" y="40" width="20" height="20" stroke="#4ade80" stroke-width="1" fill="none" opacity="0.6"/>
    <rect x="40" y="40" width="20" height="20" stroke="#a855f7" stroke-width="1" fill="none" opacity="0.6"/>
    <rect x="40" y="20" width="20" height="20" stroke="#0369a1" stroke-width="1" fill="none" opacity="0.6"/>
    <rect x="60" y="20" width="20" height="40" stroke="#4ade80" stroke-width="1" fill="none" opacity="0.6"/>

    <!-- Espiral Dourada -->
    <path d="M 30 50 Q 40 40 50 50 Q 60 60 50 50 Q 40 40 50 30 Q 70 30 70 50 Q 70 70 50 70"
          stroke="url(#fibonacciGradient)" stroke-width="2.5" fill="none" opacity="0.9"/>

    <!-- Pontos de energia na espiral -->
    <circle cx="30" cy="50" r="1.5" fill="#4ade80"/>
    <circle cx="50" cy="40" r="1.5" fill="#a855f7"/>
    <circle cx="60" cy="50" r="1.5" fill="#0369a1"/>
    <circle cx="50" cy="60" r="1.5" fill="#4ade80"/>
    <circle cx="40" cy="50" r="1.5" fill="#a855f7"/>

    <!-- Núcleo central tech -->
    <circle cx="50" cy="50" r="6" fill="url(#fibonacciGradient)" opacity="0.2"/>
    <circle cx="50" cy="50" r="3" fill="url(#fibonacciGradient)" opacity="0.8"/>
    <circle cx="50" cy="50" r="1.5" fill="#ffffff"/>
</svg>