<svg width="40" height="40" viewBox="0 0 100 100" xmlns="http://www.w3.org/2000/svg">
    <defs>
        <linearGradient id="metatronGradient" x1="0%" y1="0%" x2="100%" y2="100%">
            <stop offset="0%" style="stop-color:#0369a1;stop-opacity:0.9" />
            <stop offset="50%" style="stop-color:#4ade80;stop-opacity:1" />
            <stop offset="100%" style="stop-color:#a855f7;stop-opacity:0.9" />
        </linearGradient>
    </defs>

    <!-- Círculo exterior -->
    <circle cx="50" cy="50" r="35" stroke="url(#metatronGradient)" stroke-width="1" fill="none" opacity="0.6"/>

    <!-- Vértices do cubo -->
    <circle cx="50" cy="20" r="2.5" fill="#4ade80"/>
    <circle cx="30" cy="35" r="2.5" fill="#a855f7"/>
    <circle cx="70" cy="35" r="2.5" fill="#0369a1"/>
    <circle cx="20" cy="50" r="2.5" fill="#4ade80"/>
    <circle cx="80" cy="50" r="2.5" fill="#a855f7"/>
    <circle cx="30" cy="65" r="2.5" fill="#0369a1"/>
    <circle cx="70" cy="65" r="2.5" fill="#4ade80"/>
    <circle cx="50" cy="80" r="2.5" fill="#a855f7"/>

    <!-- Conexões do cubo -->
    <g stroke="url(#metatronGradient)" stroke-width="1.5" opacity="0.7" fill="none">
        <!-- Faces superiores -->
        <path d="M 50 20 L 30 35 L 70 35 Z"/>
        <path d="M 30 35 L 20 50 L 50 20"/>
        <path d="M 70 35 L 80 50 L 50 20"/>

        <!-- Faces médias -->
        <path d="M 20 50 L 30 35 L 30 65 L 20 50"/>
        <path d="M 80 50 L 70 35 L 70 65 L 80 50"/>
        <path d="M 30 35 L 70 35 L 70 65 L 30 65 Z"/>

        <!-- Faces inferiores -->
        <path d="M 30 65 L 50 80 L 70 65"/>
        <path d="M 20 50 L 30 65 L 50 80"/>
        <path d="M 80 50 L 70 65 L 50 80"/>
    </g>

    <!-- Núcleo central -->
    <circle cx="50" cy="50" r="6" fill="url(#metatronGradient)" opacity="0.9"/>
    <circle cx="50" cy="50" r="3" fill="#ffffff"/>
</svg>