<svg width="40" height="40" viewBox="0 0 100 100" xmlns="http://www.w3.org/2000/svg">
    <defs>
        <linearGradient id="yantraGradient" x1="0%" y1="0%" x2="100%" y2="100%">
            <stop offset="0%" style="stop-color:#0369a1;stop-opacity:1" />
            <stop offset="50%" style="stop-color:#4ade80;stop-opacity:1" />
            <stop offset="100%" style="stop-color:#a855f7;stop-opacity:1" />
        </linearGradient>
    </defs>

    <!-- Quadrado exterior -->
    <rect x="10" y="10" width="80" height="80" stroke="url(#yantraGradient)" stroke-width="1" fill="none" opacity="0.6" rx="2"/>

    <!-- Círculo -->
    <circle cx="50" cy="50" r="35" stroke="url(#yantraGradient)" stroke-width="1" fill="none" opacity="0.7"/>

    <!-- Triângulos entrelaçados -->
    <polygon points="50,25 35,60 65,60" stroke="#4ade80" stroke-width="1.5" fill="#4ade80" opacity="0.3"/>
    <polygon points="50,75 35,40 65,40" stroke="#a855f7" stroke-width="1.5" fill="#a855f7" opacity="0.3"/>

    <!-- Triângulos menores internos -->
    <polygon points="50,35 42,50 58,50" stroke="#0369a1" stroke-width="1" fill="#0369a1" opacity="0.4"/>
    <polygon points="50,65 42,50 58,50" stroke="#0369a1" stroke-width="1" fill="#0369a1" opacity="0.4"/>

    <!-- Ponto central (Bindu) -->
    <circle cx="50" cy="50" r="6" fill="url(#yantraGradient)" opacity="0.9"/>
    <circle cx="50" cy="50" r="3" fill="#ffffff"/>
    <circle cx="50" cy="50" r="1.5" fill="#a855f7"/>

    <!-- Portões cardinais -->
    <rect x="48" y="8" width="4" height="4" fill="#4ade80" opacity="0.8"/>
    <rect x="88" y="48" width="4" height="4" fill="#a855f7" opacity="0.8"/>
    <rect x="48" y="88" width="4" height="4" fill="#0369a1" opacity="0.8"/>
    <rect x="8" y="48" width="4" height="4" fill="#4ade80" opacity="0.8"/>
</svg>